# xmcd
#
# Track frame offsets:
#	150
#	11250
#	28125
#	47625
#	62175
#	76425
#	93900
#	110850
#	127500
#	143625
#	159075
#	170175
#	187050
#	206550
#	221100
#	235350
#	252825
#	269775
#	286425
#	302550
#
# Disc length: 4242 seconds
#
# Revision: 2
# Processed by: cddbd v1.5.2PL0 Copyright (c) Steve Scherf et al.
# Submitted via: audiograbber 1.83.01
#
DISCID=24109014
DTITLE=Various Artist - CHL9801
DYEAR=1900
DGENRE=Karaoke
TTITLE0=Brooks, Garth (Vocal) - Longneck Bottle
TTITLE1=Twain, Shania (Vocal) - Don't Be Stupid
TTITLE2=Carter, Deana (Vocal) - Did I Shave My Legs For This
TTITLE3=McCready, Mindy (Vocal) - What If I Do
TTITLE4=Brooks And Dunn (Vocal) - He's Got You
TTITLE5=McCann, Lila (Vocal) - I Wanna Fall In Love
TTITLE6=Raye, Collin (Vocal) - Gift
TTITLE7=Alabama (Vocal) - Of Course I'm Alright
TTITLE8=Womack, Lee Ann (Vocal) - You've Got To Talk To Me
TTITLE9=Diamond Rio (Vocal) - Imagine That
TTITLE10=Brooks, Garth - Longneck Bottle
TTITLE11=Twain, Shania - Don't Be Stupid
TTITLE12=Carter, Deana - Did I Shave My Legs For This
TTITLE13=McCready, Mindy - What If I Do
TTITLE14=Brooks And Dunn - He's Got You
TTITLE15=McCann, Lila - I Wanna Fall In Love
TTITLE16=Raye, Collin - Gift
TTITLE17=Alabama - Of Course I'm Alright
TTITLE18=Womack, Lee Ann - You've Got To Talk To Me
TTITLE19=Diamond Rio - Imagine That
EXTD=
EXTT0=
EXTT1=
EXTT2=
EXTT3=
EXTT4=
EXTT5=
EXTT6=
EXTT7=
EXTT8=
EXTT9=
EXTT10=
EXTT11=
EXTT12=
EXTT13=
EXTT14=
EXTT15=
EXTT16=
EXTT17=
EXTT18=
EXTT19=
PLAYORDER=
